<svg width="245" height="48" viewBox="0 0 245 48" fill="none" xmlns="http://www.w3.org/2000/svg">
<path d="M47.7404 36.9802C45.7137 36.9802 43.9137 36.6202 42.3404 35.9002C40.7671 35.1802 39.5404 34.1535 38.6604 32.8202C37.7804 31.4869 37.3271 29.9002 37.3004 28.0602H42.3804C42.3804 28.9935 42.5937 29.8335 43.0204 30.5802C43.4737 31.3002 44.0871 31.8735 44.8604 32.3002C45.6604 32.7269 46.6204 32.9402 47.7404 32.9402C48.7004 32.9402 49.5271 32.7935 50.2204 32.5002C50.9404 32.1802 51.4871 31.7402 51.8604 31.1802C52.2604 30.5935 52.4604 29.9135 52.4604 29.1402C52.4604 28.2602 52.2471 27.5402 51.8204 26.9802C51.4204 26.3935 50.8604 25.9002 50.1404 25.5002C49.4204 25.1002 48.5937 24.7535 47.6604 24.4602C46.7271 24.1402 45.7404 23.8069 44.7004 23.4602C42.4871 22.7135 40.8204 21.7669 39.7004 20.6202C38.5804 19.4469 38.0204 17.8869 38.0204 15.9402C38.0204 14.3135 38.4071 12.9135 39.1804 11.7402C39.9537 10.5669 41.0337 9.66019 42.4204 9.0202C43.8337 8.35353 45.4604 8.0202 47.3004 8.0202C49.1671 8.0202 50.7937 8.35353 52.1804 9.0202C53.5938 9.68686 54.7004 10.6202 55.5004 11.8202C56.3271 12.9935 56.7537 14.4069 56.7804 16.0602H51.6604C51.6337 15.3669 51.4471 14.7269 51.1004 14.1402C50.7537 13.5269 50.2471 13.0335 49.5804 12.6602C48.9404 12.2602 48.1537 12.0602 47.2204 12.0602C46.4204 12.0335 45.7004 12.1669 45.0604 12.4602C44.4471 12.7269 43.9537 13.1269 43.5804 13.6602C43.2337 14.1669 43.0604 14.8069 43.0604 15.5802C43.0604 16.3269 43.2204 16.9535 43.5404 17.4602C43.8871 17.9402 44.3804 18.3535 45.0204 18.7002C45.6604 19.0202 46.4071 19.3269 47.2604 19.6202C48.1137 19.9135 49.0471 20.2335 50.0604 20.5802C51.4471 21.0335 52.7004 21.5935 53.8204 22.2602C54.9671 22.9002 55.8738 23.7402 56.5404 24.7802C57.2071 25.8202 57.5404 27.1669 57.5404 28.8202C57.5404 30.2602 57.1671 31.6069 56.4204 32.8602C55.6737 34.0869 54.5804 35.0869 53.1404 35.8602C51.7004 36.6069 49.9004 36.9802 47.7404 36.9802Z" fill="black"/>
<path d="M62.0476 45.3002V16.3402H66.3276L66.8476 19.2602C67.2743 18.6735 67.7809 18.1269 68.3676 17.6202C68.9809 17.0869 69.7143 16.6602 70.5676 16.3402C71.4476 16.0202 72.4476 15.8602 73.5676 15.8602C75.4609 15.8602 77.1276 16.3269 78.5676 17.2602C80.0343 18.1935 81.1809 19.4602 82.0076 21.0602C82.8343 22.6335 83.2476 24.4335 83.2476 26.4602C83.2476 28.4869 82.8209 30.3002 81.9676 31.9002C81.1409 33.4735 79.9943 34.7135 78.5276 35.6202C77.0876 36.5269 75.4343 36.9802 73.5676 36.9802C72.0476 36.9802 70.7143 36.7002 69.5676 36.1402C68.4476 35.5535 67.5409 34.7269 66.8476 33.6602V45.3002H62.0476ZM72.5676 32.8202C73.6876 32.8202 74.6876 32.5535 75.5676 32.0202C76.4476 31.4869 77.1276 30.7402 77.6076 29.7802C78.1143 28.8202 78.3676 27.7135 78.3676 26.4602C78.3676 25.1802 78.1143 24.0602 77.6076 23.1002C77.1276 22.1402 76.4476 21.3935 75.5676 20.8602C74.6876 20.3269 73.6876 20.0602 72.5676 20.0602C71.4209 20.0602 70.4076 20.3269 69.5276 20.8602C68.6743 21.3935 67.9943 22.1402 67.4876 23.1002C67.0076 24.0602 66.7676 25.1669 66.7676 26.4202C66.7676 27.7002 67.0076 28.8202 67.4876 29.7802C67.9943 30.7135 68.6743 31.4602 69.5276 32.0202C70.4076 32.5535 71.4209 32.8202 72.5676 32.8202Z" fill="black"/>
<path d="M97.347 36.9802C95.347 36.9802 93.587 36.5535 92.067 35.7002C90.547 34.8202 89.3603 33.5935 88.507 32.0202C87.6536 30.4469 87.227 28.6335 87.227 26.5802C87.227 24.4469 87.6403 22.5802 88.467 20.9802C89.3203 19.3802 90.507 18.1269 92.027 17.2202C93.5736 16.3135 95.3603 15.8602 97.387 15.8602C99.3603 15.8602 101.08 16.3002 102.547 17.1802C104.014 18.0602 105.147 19.2469 105.947 20.7402C106.747 22.2069 107.147 23.8602 107.147 25.7002C107.147 25.9669 107.147 26.2602 107.147 26.5802C107.147 26.9002 107.12 27.2335 107.067 27.5802H90.667V24.5002H102.307C102.254 23.0335 101.76 21.8869 100.827 21.0602C99.8936 20.2069 98.7336 19.7802 97.347 19.7802C96.3603 19.7802 95.4536 20.0069 94.627 20.4602C93.8003 20.9135 93.147 21.5935 92.667 22.5002C92.187 23.3802 91.947 24.5002 91.947 25.8602V27.0202C91.947 28.2735 92.1736 29.3535 92.627 30.2602C93.107 31.1669 93.747 31.8602 94.547 32.3402C95.3736 32.7935 96.2936 33.0202 97.307 33.0202C98.427 33.0202 99.347 32.7802 100.067 32.3002C100.814 31.8202 101.36 31.1802 101.707 30.3802H106.587C106.214 31.6335 105.6 32.7669 104.747 33.7802C103.894 34.7669 102.84 35.5535 101.587 36.1402C100.334 36.7002 98.9203 36.9802 97.347 36.9802Z" fill="black"/>
<path d="M118.299 36.9802C116.646 36.9802 115.272 36.7002 114.179 36.1402C113.086 35.5802 112.272 34.8335 111.739 33.9002C111.206 32.9669 110.939 31.9535 110.939 30.8602C110.939 29.5802 111.259 28.4735 111.899 27.5402C112.566 26.6069 113.539 25.8869 114.819 25.3802C116.099 24.8469 117.672 24.5802 119.539 24.5802H124.619C124.619 23.5135 124.472 22.6335 124.179 21.9402C123.886 21.2202 123.432 20.6869 122.819 20.3402C122.206 19.9935 121.419 19.8202 120.459 19.8202C119.366 19.8202 118.432 20.0735 117.659 20.5802C116.886 21.0602 116.406 21.8069 116.219 22.8202H111.499C111.659 21.3802 112.139 20.1535 112.939 19.1402C113.739 18.1002 114.792 17.3002 116.099 16.7402C117.432 16.1535 118.886 15.8602 120.459 15.8602C122.352 15.8602 123.966 16.1935 125.299 16.8602C126.632 17.5002 127.646 18.4335 128.339 19.6602C129.059 20.8602 129.419 22.3135 129.419 24.0202V36.5002H125.339L124.859 33.2602C124.592 33.7935 124.246 34.2869 123.819 34.7402C123.419 35.1935 122.952 35.5935 122.419 35.9402C121.886 36.2602 121.272 36.5135 120.579 36.7002C119.912 36.8869 119.152 36.9802 118.299 36.9802ZM119.379 33.1802C120.152 33.1802 120.832 33.0469 121.419 32.7802C122.032 32.4869 122.552 32.0869 122.979 31.5802C123.432 31.0469 123.779 30.4602 124.019 29.8202C124.259 29.1802 124.419 28.5002 124.499 27.7802V27.7002H120.059C119.126 27.7002 118.352 27.8202 117.739 28.0602C117.126 28.2735 116.686 28.5935 116.419 29.0202C116.152 29.4469 116.019 29.9402 116.019 30.5002C116.019 31.0602 116.152 31.5402 116.419 31.9402C116.686 32.3402 117.072 32.6469 117.579 32.8602C118.086 33.0735 118.686 33.1802 119.379 33.1802Z" fill="black"/>
<path d="M147.548 36.5002L138.628 25.4602L146.628 16.3402H152.348L142.388 27.4202V23.7002L153.548 36.5002H147.548ZM134.548 36.5002V7.7002H139.348V36.5002H134.548Z" fill="black"/>
<path d="M155.134 36.5002L160.094 8.50019H177.454L176.774 12.3402H164.214L162.774 20.4602H174.134L173.494 24.1802H162.134L160.614 32.6602H173.174L172.494 36.5002H155.134Z" fill="black"/>
<path d="M184.037 36.9802C182.517 36.9802 181.277 36.7402 180.317 36.2602C179.357 35.7535 178.664 35.0735 178.237 34.2202C177.81 33.3669 177.61 32.4335 177.637 31.4202C177.717 30.0335 178.157 28.8335 178.957 27.8202C179.784 26.7802 180.917 25.9802 182.357 25.4202C183.797 24.8602 185.49 24.5802 187.437 24.5802H192.517C192.704 23.4869 192.704 22.5935 192.517 21.9002C192.357 21.2069 191.997 20.6869 191.437 20.3402C190.904 19.9935 190.144 19.8202 189.157 19.8202C188.09 19.8202 187.117 20.0735 186.237 20.5802C185.384 21.0602 184.77 21.8069 184.397 22.8202H179.677C180.077 21.3802 180.77 20.1535 181.757 19.1402C182.744 18.1002 183.93 17.3002 185.317 16.7402C186.73 16.1535 188.237 15.8602 189.837 15.8602C191.73 15.8602 193.29 16.1935 194.517 16.8602C195.744 17.5002 196.61 18.4335 197.117 19.6602C197.624 20.8602 197.717 22.3135 197.397 24.0202L195.237 36.5002H190.997L191.157 33.3002C190.784 33.8335 190.357 34.3269 189.877 34.7802C189.397 35.2335 188.85 35.6335 188.237 35.9802C187.65 36.3002 187.01 36.5402 186.317 36.7002C185.624 36.8869 184.864 36.9802 184.037 36.9802ZM185.757 33.1802C186.504 33.1802 187.21 33.0469 187.877 32.7802C188.57 32.4869 189.184 32.0869 189.717 31.5802C190.277 31.0735 190.73 30.5002 191.077 29.8602C191.424 29.1935 191.664 28.5002 191.797 27.7802V27.7002H187.437C186.477 27.7002 185.65 27.8335 184.957 28.1002C184.29 28.3402 183.77 28.7002 183.397 29.1802C183.05 29.6335 182.864 30.1802 182.837 30.8202C182.784 31.5935 183.024 32.1802 183.557 32.5802C184.09 32.9802 184.824 33.1802 185.757 33.1802Z" fill="black"/>
<path d="M208.72 36.9802C206.88 36.9802 205.333 36.6869 204.08 36.1002C202.853 35.4869 201.947 34.6469 201.36 33.5802C200.773 32.5135 200.533 31.3002 200.64 29.9402H205.44C205.44 30.5535 205.573 31.1135 205.84 31.6202C206.107 32.1269 206.533 32.5269 207.12 32.8202C207.707 33.1135 208.44 33.2602 209.32 33.2602C210.12 33.2602 210.8 33.1402 211.36 32.9002C211.92 32.6602 212.36 32.3402 212.68 31.9402C213 31.5402 213.16 31.0602 213.16 30.5002C213.213 29.9669 213.08 29.5535 212.76 29.2602C212.467 28.9402 212.04 28.6869 211.48 28.5002C210.92 28.2869 210.24 28.1002 209.44 27.9402C208.56 27.7535 207.707 27.5269 206.88 27.2602C206.053 26.9669 205.32 26.6069 204.68 26.1802C204.04 25.7535 203.547 25.2335 203.2 24.6202C202.88 23.9802 202.733 23.2202 202.76 22.3402C202.813 21.0869 203.227 19.9802 204 19.0202C204.773 18.0335 205.813 17.2602 207.12 16.7002C208.427 16.1402 209.92 15.8602 211.6 15.8602C213.973 15.8602 215.813 16.4202 217.12 17.5402C218.427 18.6335 219.04 20.1402 218.96 22.0602H214.36C214.333 21.2869 214.027 20.6869 213.44 20.2602C212.88 19.8335 212.08 19.6202 211.04 19.6202C210.027 19.6202 209.2 19.8335 208.56 20.2602C207.92 20.6869 207.587 21.2335 207.56 21.9002C207.533 22.3269 207.667 22.7002 207.96 23.0202C208.253 23.3135 208.693 23.5669 209.28 23.7802C209.867 23.9935 210.587 24.1935 211.44 24.3802C212.453 24.5935 213.373 24.8469 214.2 25.1402C215.027 25.4069 215.747 25.7535 216.36 26.1802C216.973 26.5802 217.427 27.1002 217.72 27.7402C218.013 28.3535 218.133 29.1002 218.08 29.9802C218.027 31.4202 217.587 32.6735 216.76 33.7402C215.933 34.7802 214.827 35.5802 213.44 36.1402C212.053 36.7002 210.48 36.9802 208.72 36.9802Z" fill="black"/>
<path d="M221.637 45.3002L228.117 34.8602H226.957L222.397 16.3402H227.517L230.877 30.6602L239.277 16.3402H244.397L226.717 45.3002H221.637Z" fill="black"/>
<path d="M7.28446 3.06212C6.96364 3.06439 5.80827 3.34661 4.95948 3.95392C4.2421 4.46721 3.17367 6.25295 1.96033 8.39409C1.31195 9.53825 1.44037 11.5877 1.78715 16.1544C2.01388 19.1401 2.74735 23.4459 3.19473 25.993C3.95918 30.3454 5.15535 31.6051 6.17989 32.5707C7.67669 33.9814 10.2736 34.4402 12.7382 34.4995C13.5253 34.5185 14.247 33.9897 15.1133 33.2915C15.8898 32.6657 17.1139 30.5219 18.6268 27.7065C19.3993 26.269 19.8097 24.1016 20.3234 20.9625C20.5522 19.5649 20.5273 18.5369 20.4267 16.9657C20.3262 15.3946 20.1024 13.3045 19.6944 11.2421C18.8882 7.16733 17.7851 4.72795 17.2472 3.97274C16.4092 2.79638 14.8599 1.91755 14.1074 1.72704C12.78 1.39098 10.628 1.4523 9.40724 1.75182C7.88501 2.65317 7.258 2.85059 6.72143 2.94745C6.46757 2.98068 6.25113 2.98159 6.02814 2.98252M17.5004 4.5C17.4816 4.90121 17.3225 6.09723 16.762 6.84376C16.082 7.74932 14.6093 7.90323 9.83256 8.97441C5.71611 9.89754 2.95494 9.35225 2.51653 9.2154C2.31104 9.14256 2.14002 9.06282 1.98969 8.9124C1.83935 8.76199 1.71487 8.54332 1.50037 8.12917M2.50037 19.4808C2.7646 19.546 3.69431 19.9259 4.93674 20.1747C6.52585 20.4929 9.2982 20.7121 10.838 20.1711C12.2005 19.6924 14.0909 19.6202 14.8389 19.1758C15.6421 18.6986 16.7755 17.8464 17.5958 17.1789C17.9079 16.925 18.5076 17.0341 18.9863 16.9469C19.2031 16.6856 19.4257 16.2361 19.7809 15.6863C19.9555 15.4066 20.1185 15.1254 20.5004 14.5M14.1228 35.5C14.1228 35.5975 14.1228 35.6951 14.1447 37.4996L14.1449 37.5163C14.1669 39.3257 14.2092 42.8182 13.8398 44.6141C13.6269 45.6493 13.2767 46.0857 12.9065 46.2615M12.9065 46.2615C12.6325 46.3916 12.3474 46.3789 12.099 46.3604C11.5151 46.3171 11.1574 46.2426 11.9951 46.2437C12.2177 46.244 12.5254 46.2498 12.9065 46.2615ZM12.9065 46.2615C13.9599 46.2937 15.5739 46.3707 17.5004 46.5" stroke="black" stroke-width="3" stroke-linecap="round"/>
</svg>
